# xmcd
#
# Track frame offsets:
#	150
#	13442
#	23863
#	34375
#	44525
#	59000
#	70468
#	82073
#	92028
#	104630
#	116538
#	124436
#	137780
#	146047
#	159145
#	171074
#	185145
#	196779
#	208421
#	217799
#	230388
#	244033
#	254122
#	267256
#	278701
#	289141
#	298919
#	309756
#	320768
#	330600
#
# Disc length: 4573 seconds
#
# Revision: 0
# Processed by: cddbd v1.5.2PL0 Copyright (c) Steve Scherf et al.
# Submitted via: audiograbber 1.83.01
#
DISCID=e511db1e
DTITLE=The McGuire Sisters - Sincerely CD1
DYEAR=1900
DGENRE=Oldies
TTITLE0=Something's Gotta Give
TTITLE1=Heavenly Feeling
TTITLE2=Not As A Stranger
TTITLE3=Muskrat Ramble
TTITLE4=One, Two, Three, Four
TTITLE5=Tiptoe Through The Tulips
TTITLE6=Be Good To Me
TTITLE7=In The Alps
TTITLE8=Weary Blues
TTITLE9=Cuddle Up A Little Closer, Lovey Mine
TTITLE10=Frosty The Snowman
TTITLE11=Thank You Day
TTITLE12=Blue Skies
TTITLE13=Goodnight, Sweetheart, Goodnight
TTITLE14=Missing
TTITLE15=Picking Sweethearts
TTITLE16=Hey, Mr. Cotton Picker
TTITLE17=Tell Us Where The Good Times Are
TTITLE18=All By Myself
TTITLE19=Melody Of Love
TTITLE20=Open Up Your Heart
TTITLE21=Hearts Of Stone
TTITLE22=The Naughty Lady Of Shady Lane
TTITLE23=Sometimes I'm Happy
TTITLE24=Give Me Your Heart For Christmas
TTITLE25=Christmas Alphabet
TTITLE26=Doesn't Anybody Love Me
TTITLE27=Delilah Jones
TTITLE28=June Night
TTITLE29=Picnic
EXTD=
EXTT0=
EXTT1=
EXTT2=
EXTT3=
EXTT4=
EXTT5=
EXTT6=
EXTT7=
EXTT8=
EXTT9=
EXTT10=
EXTT11=
EXTT12=
EXTT13=
EXTT14=
EXTT15=
EXTT16=
EXTT17=
EXTT18=
EXTT19=
EXTT20=
EXTT21=
EXTT22=
EXTT23=
EXTT24=
EXTT25=
EXTT26=
EXTT27=
EXTT28=
EXTT29=
PLAYORDER=
